<svg xmlns="http://www.w3.org/2000/svg"  viewBox="0 0 48 48" width="48px" height="48px"><path d="M 24.630859 1.0488281 C 20.202 1.0488281 16.133402 2.4071875 13.103516 4.7753906 C 10.414682 6.8770217 8.552416 9.8272387 8.1230469 13.216797 A 1.50015 1.50015 0 0 0 8.0234375 13.777344 L 8.0234375 24.048828 L 7.0605469 24.048828 C 6.7795469 24.048828 6.5122656 24.164094 6.3222656 24.371094 C 6.1312656 24.577094 6.0355938 24.854766 6.0585938 25.134766 C 6.1455937 26.240766 6.2837187 27.970578 6.3867188 29.267578 C 6.4767188 30.399578 6.9155312 31.475703 7.6445312 32.345703 C 8.1033361 32.892819 8.340828 33.176367 8.5957031 33.480469 C 8.6575748 33.885289 8.7215215 34.2883 8.8007812 34.683594 C 8.5033992 36.616291 7.8959987 40.076897 6.9238281 42.949219 C 6.7748281 43.317219 6.8729688 43.739859 7.1679688 44.005859 C 7.4629687 44.271859 7.8921875 44.323719 8.2421875 44.136719 C 9.0781875 43.741719 10.0205 43.234484 10.8125 42.646484 C 10.9535 42.521484 11.161359 42.506375 11.318359 42.609375 C 11.476359 42.713375 11.544375 42.910844 11.484375 43.089844 C 11.209375 43.902844 10.86875 44.950484 10.59375 46.021484 C 10.49475 46.383484 10.622922 46.768047 10.919922 46.998047 C 11.216922 47.227047 11.620313 47.255359 11.945312 47.068359 C 13.04213 46.364008 14.414588 45.228343 15.515625 43.509766 C 17.930373 45.276898 20.803462 47.048828 23.773438 47.048828 C 26.727165 47.048828 29.745779 45.319682 32.353516 43.574219 C 32.664483 43.953225 33.781005 45.313146 34.820312 46.580078 C 35.035313 46.841078 35.381031 46.954187 35.707031 46.867188 C 36.034031 46.779187 36.279938 46.508781 36.335938 46.175781 C 36.509937 45.131781 36.720328 43.873438 36.861328 43.023438 C 36.891328 42.847437 37.0165 42.704344 37.1875 42.652344 C 37.3575 42.601344 37.543062 42.65125 37.664062 42.78125 C 38.145063 43.28025 38.672063 43.693391 39.164062 44.025391 C 39.462063 44.230391 39.858438 44.223812 40.148438 44.007812 C 40.438437 43.790813 40.557312 43.414313 40.445312 43.070312 C 40.22006 42.031646 39.97496 40.511594 39.791016 38.541016 C 40.224146 37.789748 43.523438 31.768665 43.523438 21.40625 C 43.523438 13.75148 41.265446 8.5372754 37.679688 5.34375 C 34.09393 2.1502246 29.374295 1.0656653 24.738281 1.0488281 A 1.50015 1.50015 0 0 0 24.732422 1.0488281 L 24.630859 1.0488281 z M 11.023438 16.048828 L 20.652344 16.048828 C 21.702929 18.128027 23.324085 20.578718 25.703125 23.048828 L 11.023438 23.048828 L 11.023438 16.048828 z M 11.041016 26.048828 L 14.527344 26.048828 A 2.5 2.5 0 0 0 16.523438 30.048828 A 2.5 2.5 0 0 0 18.523438 26.048828 L 29.003906 26.048828 C 29.117184 26.139666 29.233984 26.22984 29.349609 26.320312 A 2.5 2.5 0 0 0 31.523438 30.048828 A 2.5 2.5 0 0 0 33.460938 29.126953 C 34.042673 29.472495 34.638102 29.813339 35.263672 30.144531 C 35.280042 30.194711 35.290094 30.225461 35.308594 30.283203 C 35.369045 30.471811 35.463648 30.827762 35.542969 31.099609 C 35.345715 31.293125 35.32703 31.312182 35.083984 31.550781 C 34.104482 32.510355 32.790681 33.048828 31.419922 33.048828 L 31.417969 33.048828 C 30.047815 33.048828 28.730178 32.510533 27.751953 31.550781 A 1.0001 1.0001 0 0 0 27.751953 31.548828 C 27.166572 30.975434 26.557219 30.377342 26.119141 29.947266 A 1.0001 1.0001 0 0 0 26.117188 29.947266 C 25.530093 29.371885 24.740407 29.048828 23.917969 29.048828 L 23.630859 29.048828 C 22.808421 29.048828 22.016953 29.370277 21.429688 29.947266 C 20.989853 30.378082 20.379727 30.976972 19.794922 31.550781 C 18.815419 32.510355 17.501619 33.048828 16.130859 33.048828 L 16.128906 33.048828 C 14.757592 33.048828 13.441115 32.510533 12.462891 31.550781 C 11.816894 30.917567 11.262234 30.371344 11.244141 30.353516 C 11.096929 28.675744 11.053443 27.206441 11.041016 26.048828 z M 23.630859 31.048828 L 23.917969 31.048828 C 24.217531 31.048828 24.503843 31.164381 24.71875 31.375 C 25.156615 31.804867 25.765301 32.40426 26.351562 32.978516 C 27.703339 34.304764 29.524122 35.048828 31.417969 35.048828 L 31.419922 35.048828 C 33.145121 35.048828 34.803096 34.425708 36.107422 33.314453 C 36.215768 33.814717 36.321636 34.374558 36.425781 34.976562 C 36.136417 36.034621 35.770951 36.906349 35.431641 37.355469 C 35.531001 37.223805 35.334301 37.459997 35.087891 37.6875 C 34.841478 37.915003 34.495794 38.21579 34.080078 38.560547 C 33.248647 39.250061 32.132485 40.112487 30.902344 40.943359 C 28.442062 42.605104 25.412655 44.048828 23.773438 44.048828 C 22.134867 44.048828 19.36584 42.628906 17.128906 40.978516 C 16.01044 40.15332 15.003668 39.297028 14.251953 38.609375 C 13.500238 37.921722 12.891262 37.238096 12.978516 37.353516 C 12.492457 36.709012 12.010069 35.221969 11.669922 33.507812 C 12.936505 34.499606 14.50453 35.048828 16.128906 35.048828 L 16.130859 35.048828 C 18.025545 35.048828 19.84294 34.304212 21.195312 32.978516 A 1.0001 1.0001 0 0 0 21.197266 32.978516 C 21.78246 32.404324 22.391912 31.804183 22.830078 31.375 C 23.042812 31.165989 23.331297 31.048828 23.630859 31.048828 z M 22.398438 36.048828 C 22.256438 36.048828 22.130125 36.134578 22.078125 36.267578 C 22.027125 36.399578 22.062969 36.550484 22.167969 36.646484 C 22.580969 37.021484 23.104281 37.496703 23.488281 37.845703 C 23.783281 38.113703 24.23525 38.113703 24.53125 37.845703 C 24.91425 37.496703 25.438562 37.021484 25.851562 36.646484 C 25.956563 36.550484 25.992406 36.399578 25.941406 36.267578 C 25.890406 36.134578 25.763094 36.048828 25.621094 36.048828 L 22.398438 36.048828 z M 21.023438 39.048828 A 1.0001 1.0001 0 1 0 21.023438 41.048828 L 27.023438 41.048828 A 1.0001 1.0001 0 1 0 27.023438 39.048828 L 21.023438 39.048828 z"/></svg>